HIERARCHY
ROOT Hips
{
	OFFSET 0.000000 0.000000 0.000000
	CHANNELS 6 Xposition Yposition Zposition Zrotation Yrotation Xrotation 
	JOINT LHipJoint
	{
		OFFSET 0.000000 0.000000 0.000000
		CHANNELS 3 Zrotation Yrotation Xrotation
		JOINT LeftUpLeg
		{
			OFFSET 1.363060 -1.794630 0.839290
			CHANNELS 3 Zrotation Yrotation Xrotation
			JOINT LeftLeg
			{
				OFFSET 2.448110 -6.726130 0.000000
				CHANNELS 3 Zrotation Yrotation Xrotation
				JOINT LeftFoot
				{
					OFFSET 2.562200 -7.039590 0.000000
					CHANNELS 3 Zrotation Yrotation Xrotation
					JOINT LeftToeBase
					{
						OFFSET 0.157640 -0.433110 2.322550
						CHANNELS 3 Zrotation Yrotation Xrotation
						End Site
						{
							OFFSET 0.000000 0.000000 0.000000
						}
					}
				}
			}
		}
	}
	JOINT RHipJoint
	{
		OFFSET 0.000000 0.000000 0.000000
		CHANNELS 3 Zrotation Yrotation Xrotation
		JOINT RightUpLeg
		{
			OFFSET -1.305520 -1.794630 0.839290
			CHANNELS 3 Zrotation Yrotation Xrotation
			JOINT RightLeg
			{
				OFFSET -2.542530 -6.985550 0.000000
				CHANNELS 3 Zrotation Yrotation Xrotation
				JOINT RightFoot
				{
					OFFSET -2.568260 -7.056230 0.000000
					CHANNELS 3 Zrotation Yrotation Xrotation
					JOINT RightToeBase
					{
						OFFSET -0.164730 -0.452590 2.363150
						CHANNELS 3 Zrotation Yrotation Xrotation
						End Site
						{
							OFFSET 0.000000 0.000000 0.000000
						}
					}
				}
			}
		}
	}
}
MOTION
Frames: 22
Frame Time: 0.008333
-1.825412 15.546685 0.785931 -124.251317 -85.850718 177.232169 -8.270490 -0.921232 3.440467 -6.637489 -11.525047 -85.642493 -1.634074 3.029302 51.123381 2.855737 5.465604 -23.496675 -1.688900 -0.000000 -22.217200 8.208324 0.680154 2.650006 12.321768 10.654303 -87.927766 1.884440 -5.959203 60.032325 0.075907 5.063075 -15.385876 -0.063700 -0.000001 -75.216200
-1.921648 15.416147 0.796307 -119.894424 -86.262968 173.495080 -8.240635 -1.030830 3.523355 -6.428568 -12.128713 -87.282316 -1.453988 3.247336 53.699730 2.943791 5.505656 -24.661327 -1.876700 -0.000001 -22.428700 8.227533 0.668430 2.879295 11.871875 11.045108 -89.572344 1.758356 -6.107363 61.287947 0.137205 5.459703 -15.804256 -0.094800 -0.000000 -74.793900
-2.018272 15.281274 0.804024 -114.937618 -86.734053 169.042186 -8.220250 -1.168311 3.591272 -6.296247 -12.735268 -88.777568 -1.269386 3.462358 56.302734 3.028358 5.562678 -25.807520 -2.068200 -0.000000 -22.676999 8.244079 0.662211 3.078219 11.344748 11.330581 -91.028004 1.590389 -6.247048 62.782093 0.137454 5.663553 -16.518920 -0.128000 0.000000 -73.819500
-2.115135 15.143927 0.808588 -109.273788 -87.266475 163.753845 -8.214042 -1.330689 3.639342 -6.264743 -13.346609 -90.084210 -1.085621 3.672775 58.894316 3.109278 5.636238 -26.938890 -2.264600 0.000000 -22.964900 8.250829 0.663472 3.240482 10.750777 11.495755 -92.265280 1.390724 -6.372733 64.475311 0.072224 5.672762 -17.572736 -0.160099 -0.000000 -72.255400
-2.212802 15.005579 0.809974 -102.349132 -87.863904 157.083726 -8.231517 -1.518460 3.671203 -6.339100 -13.966486 -91.189357 -0.906776 3.878232 61.444153 3.186831 5.723029 -28.064147 -2.466900 -0.000000 -23.261499 8.238438 0.664966 3.367623 10.107730 11.541835 -93.280802 1.170493 -6.481165 66.319769 -0.059079 5.494127 -18.972150 -0.181100 0.000000 -70.127900
-2.311627 14.867819 0.808151 -93.096308 -88.533090 147.970516 -8.292245 -1.731663 3.692166 -6.528201 -14.594802 -92.080899 -0.737352 4.081401 63.920893 3.261415 5.820784 -29.192940 -2.676100 -0.000000 -23.543099 8.189301 0.659176 3.461192 9.425697 11.473496 -94.076985 0.938384 -6.568074 68.269073 -0.252431 5.147158 -20.687953 -0.176000 0.000000 -67.522400
-2.411927 14.732338 0.803283 -79.087543 -89.285193 133.997104 -8.438914 -1.959380 3.710440 -6.843967 -15.217263 -92.760114 -0.581252 4.292678 66.290967 3.333104 5.930605 -30.334270 -2.892700 -0.000000 -23.795600 8.063087 0.650535 3.519218 8.703448 11.311488 -94.661348 0.700392 -6.622674 70.281387 -0.499701 4.662126 -22.654539 -0.128400 -0.000000 -64.583900
-2.514005 14.600801 0.795733 124.874159 -89.886328 -70.015754 -8.741210 -2.096107 3.736855 -7.292766 -15.739445 -93.275893 -0.436027 4.540110 68.517992 3.402829 6.064336 -31.501005 -3.116401 0.000000 -24.024200 7.790053 0.739894 3.532954 7.935668 11.159234 -95.015258 0.463574 -6.614708 72.320323 -0.788551 4.080625 -24.766285 -0.024600 0.000000 -61.521800
-2.617996 14.474730 0.786080 161.851151 -89.192983 -107.118164 -9.022935 -1.768961 3.761471 -7.744890 -15.904430 -93.783506 -0.274444 4.823511 70.627724 3.482068 6.224273 -32.713434 -3.346600 -0.000001 -24.247200 7.542808 1.282789 3.528036 7.255676 11.297505 -95.033259 0.252813 -6.539229 74.300122 -1.097528 3.435271 -26.889972 0.141100 -0.000000 -58.581900
-2.723877 14.355872 0.774667 -166.053447 -89.211471 -139.407318 -8.777418 -1.299836 3.725766 -8.005785 -15.978084 -94.150719 -0.099099 4.983125 72.714438 3.576185 6.344762 -33.914641 -3.583300 0.000001 -24.485000 7.837236 1.937019 3.588174 6.863101 11.467615 -94.861925 0.075575 -6.570882 76.079583 -1.403534 2.702967 -28.965485 0.364400 0.000001 -56.016400
-2.831672 14.245734 0.762278 -147.288792 -89.739872 -158.412166 -8.478237 -1.232765 3.677800 -8.285996 -16.304722 -94.201673 0.048392 5.050313 74.650313 3.666265 6.457523 -35.049392 -3.825600 -0.000000 -24.777200 8.208905 2.171509 3.666806 6.512382 11.317168 -94.724759 -0.104727 -6.680892 77.726183 -1.699797 1.941801 -30.912878 0.631500 0.000000 -54.037700
-2.941300 14.145793 0.749513 43.582977 -89.715610 10.444205 -8.343734 -1.311324 3.650892 -8.625319 -16.663431 -94.063351 0.171405 5.118013 76.375912 3.753954 6.605882 -36.124509 -4.073100 0.000000 -25.158500 8.433554 2.241362 3.730286 6.147121 11.080154 -94.539961 -0.287932 -6.764606 79.247794 -1.971227 1.210016 -32.617783 0.921500 0.000000 -52.777200
-3.052591 14.057718 0.736940 50.586068 -89.283338 3.147010 -8.301634 -1.396297 3.641781 -8.962570 -16.946428 -93.802305 0.280018 5.187190 77.889999 3.842367 6.799305 -37.123502 -4.325700 -0.000000 -25.654100 8.577698 2.278399 3.786439 5.820215 10.876709 -94.266844 -0.461656 -6.814832 80.597829 -2.205784 0.532684 -34.025822 1.212101 0.000000 -52.254500
-3.165682 13.982952 0.725033 55.553164 -88.974772 -2.125924 -8.304594 -1.462241 3.646273 -9.260649 -17.129757 -93.435679 0.376960 5.246829 79.184604 3.931702 7.041260 -38.022561 -4.582900 -0.000000 -26.273600 8.684818 2.302026 3.842933 5.563369 10.737945 -93.895922 -0.616705 -6.837313 81.736683 -2.398761 -0.074240 -35.128884 1.484200 0.000000 -52.382500
-3.280496 13.923101 0.713946 59.485477 -88.779709 -6.376625 -8.331802 -1.509479 3.661283 -9.507436 -17.209408 -92.959200 0.460838 5.289433 80.244839 4.021066 7.332463 -38.802269 -4.843500 0.000000 -26.997800 8.772350 2.307118 3.903632 5.389071 10.669116 -93.412924 -0.745400 -6.834168 82.632708 -2.552020 -0.602928 -35.955419 1.725800 0.000000 -52.982300
-3.397366 13.879760 0.703877 62.855605 -88.691063 -10.077067 -8.374673 -1.540426 3.683418 -9.698348 -17.181600 -92.363701 0.528525 5.310683 81.051566 4.108602 7.668049 -39.448762 -5.103900 0.000000 -27.805900 8.845232 2.287700 3.968418 5.306060 10.671482 -92.794198 -0.839233 -6.804427 83.253783 -2.672922 -1.055186 -36.559156 1.934399 -0.000000 -53.847100
-3.516659 13.854442 0.694599 66.169654 -88.691221 -13.740825 -8.428725 -1.557985 3.708694 -9.846066 -17.047043 -91.624986 0.574978 5.307587 81.585324 4.192125 8.036236 -39.957541 -5.359100 -0.000000 -28.648700 8.905951 2.237069 4.036673 5.311740 10.734297 -92.006239 -0.890817 -6.746256 83.572715 -2.771893 -1.440028 -37.011508 2.114399 -0.000000 -54.749100
-3.639042 13.848671 0.685961 69.890889 -88.761680 -17.838576 -8.491916 -1.564489 3.731527 -9.967017 -16.806043 -90.714698 0.594502 5.278191 81.826556 4.268996 8.419004 -40.331516 -5.601300 -0.000000 -29.472500 8.954780 2.150485 4.105197 5.401176 10.842347 -91.010263 -0.893265 -6.657605 83.562445 -2.860297 -1.770416 -37.386847 2.275500 -0.000000 -55.489400
-3.765083 13.863942 0.677577 74.713059 -88.873538 -23.079731 -8.564303 -1.563582 3.745256 -10.086658 -16.461223 -89.596103 0.580949 5.221311 81.758080 4.335769 8.791766 -40.578663 -5.821200 0.000000 -30.223100 8.990900 2.022820 4.170054 5.561426 10.971811 -89.766617 -0.842295 -6.536875 83.201305 -2.947834 -2.058807 -37.749850 2.427700 0.000000 -55.918000
-3.895570 13.901594 0.669088 81.692043 -88.988016 -30.536246 -8.650526 -1.560897 3.742965 -10.233257 -16.016775 -88.229012 0.528715 5.136300 81.365052 4.388217 9.127301 -40.707724 -6.007301 -0.000000 -30.860001 9.009935 1.848173 4.225866 5.773786 11.092834 -88.238244 -0.736685 -6.382614 82.472501 -3.040488 -2.313020 -38.141534 2.577900 0.000000 -55.950900
-4.031194 13.962768 0.660156 92.386162 -89.052659 -41.785372 -8.764335 -1.560923 3.718268 -10.437056 -15.474275 -86.575695 0.433450 5.024776 80.634826 4.420810 9.397354 -40.723311 -6.147100 0.000000 -31.371200 8.999029 1.623287 4.265739 6.012370 11.175327 -86.394730 -0.579254 -6.192044 81.367249 -3.138763 -2.532296 -38.567387 2.726400 -0.000000 -55.581399
-4.172663 14.048366 0.650560 108.235995 -89.009388 -58.285482 -8.928117 -1.549018 3.666368 -10.723438 -14.819688 -84.611433 0.293870 4.893020 79.557532 4.426867 9.577737 -40.620463 -6.226400 0.000000 -31.789201 8.937391 1.364718 4.282100 6.248042 11.204840 -84.209901 -0.376629 -5.958082 79.886538 -3.236895 -2.706101 -38.989738 2.864600 0.000001 -54.888200
